<?xml version="1.0" encoding="UTF-8"?>
<svg version="1.1" xmlns="http://www.w3.org/2000/svg" width="512" height="512">
<path d="M0 0 C0.73920181 -0.00705963 1.47840363 -0.01411926 2.24000549 -0.02139282 C32.68623133 -0.24627393 32.68623133 -0.24627393 45.9765625 3.203125 C46.80075684 3.40711914 47.62495117 3.61111328 48.47412109 3.82128906 C60.4970781 6.8418674 71.85352184 10.73112031 82.9765625 16.203125 C83.60755859 16.50976074 84.23855469 16.81639648 84.88867188 17.13232422 C97.76743223 23.46339678 109.26559183 31.32971736 119.7578125 41.140625 C121.73393343 42.97758249 123.76610871 44.68123665 125.8515625 46.390625 C148.44743988 66.20757391 163.32561414 95.55235662 170.7265625 124.265625 C170.92548096 125.03189209 171.12439941 125.79815918 171.3293457 126.58764648 C174.73679107 140.58726223 175.27615595 154.38213088 175.26708984 168.70776367 C175.27308842 170.62151854 175.27989698 172.53527101 175.28744507 174.44902039 C175.30496691 179.60167927 175.30979427 184.75427158 175.31107664 189.90695739 C175.31250551 193.1335434 175.31678872 196.36011285 175.32207108 199.58669472 C175.34051836 210.86306445 175.34874746 222.13938716 175.34716797 233.41577148 C175.34596471 243.89792249 175.36711691 254.37986822 175.3986553 264.86196727 C175.4248506 273.89254091 175.43553405 282.92304756 175.43425715 291.95365888 C175.43374892 297.33399382 175.43935639 302.71414558 175.46061325 308.09444237 C175.48005322 313.15159315 175.48008083 318.20838684 175.46557999 323.26555061 C175.46349866 325.11335653 175.46815214 326.96118518 175.4803009 328.80895233 C175.58410478 345.69952912 172.28027093 359.06750802 160.9765625 372.203125 C148.18110596 383.48192475 134.61036998 386.39934753 118.0390625 386.265625 C116.44094727 386.25885742 116.44094727 386.25885742 114.81054688 386.25195312 C112.19915959 386.24024287 109.58789126 386.22384224 106.9765625 386.203125 C106.82767578 387.93949219 106.82767578 387.93949219 106.67578125 389.7109375 C106.10701835 394.22332171 104.68070927 397.9682162 102.7890625 402.078125 C102.47445068 402.77502441 102.15983887 403.47192383 101.83569336 404.18994141 C90.82620927 428.1404954 72.43558497 445.50391339 48.5859375 456.2421875 C45.9765625 457.203125 45.9765625 457.203125 42.9765625 457.203125 C42.9765625 475.353125 42.9765625 493.503125 42.9765625 512.203125 C21.1965625 512.203125 -0.5834375 512.203125 -23.0234375 512.203125 C-23.0234375 494.053125 -23.0234375 475.903125 -23.0234375 457.203125 C-25.0034375 456.873125 -26.9834375 456.543125 -29.0234375 456.203125 C-31.48742518 455.10801936 -33.79339282 453.99277042 -36.1484375 452.703125 C-36.80368408 452.34637695 -37.45893066 451.98962891 -38.1340332 451.62207031 C-61.33858857 438.67147694 -78.31544124 417.97847543 -86.4296875 392.69140625 C-87.0234375 390.203125 -87.0234375 390.203125 -87.0234375 386.203125 C-87.6625708 386.21359863 -88.3017041 386.22407227 -88.96020508 386.23486328 C-91.91874085 386.27700995 -94.87721311 386.30263445 -97.8359375 386.328125 C-98.84076172 386.34488281 -99.84558594 386.36164063 -100.88085938 386.37890625 C-115.36122448 386.47202757 -129.689233 383.24194995 -140.51171875 372.91015625 C-149.49857155 362.76221135 -155.17986845 351.0216394 -155.16387939 337.41577148 C-155.16685052 336.62608884 -155.16982164 335.83640619 -155.1728828 335.02279377 C-155.18156268 332.37325805 -155.18307752 329.72376756 -155.18457031 327.07421875 C-155.18919945 325.17506819 -155.19422424 323.27591857 -155.19961548 321.37677002 C-155.21274308 316.21053986 -155.21918659 311.0443227 -155.22362614 305.87807846 C-155.22655978 302.64362159 -155.23066542 299.40916823 -155.23513031 296.17471313 C-155.24881389 286.03630941 -155.25847307 275.89791378 -155.2623322 265.75950146 C-155.26679783 254.09358584 -155.28427226 242.42778828 -155.3133328 230.76190853 C-155.33505284 221.72549423 -155.34504216 212.68911286 -155.34637332 203.65267277 C-155.34741514 198.26635765 -155.35318731 192.88015336 -155.37119293 187.49386597 C-155.38785001 182.41144861 -155.38974495 177.3292232 -155.38105392 172.24678802 C-155.38029254 170.39751414 -155.38450489 168.5482292 -155.39451218 166.69898224 C-155.47723088 150.437553 -154.05177849 134.22006979 -149.3359375 118.578125 C-149.08175049 117.71678955 -148.82756348 116.8554541 -148.56567383 115.96801758 C-142.59574346 96.50365017 -132.86670794 77.98964491 -120.0234375 62.203125 C-119.57097656 61.64383301 -119.11851563 61.08454102 -118.65234375 60.50830078 C-103.67566694 42.11722576 -86.07897966 28.09102208 -65.0234375 17.203125 C-64.41032715 16.88359863 -63.7972168 16.56407227 -63.16552734 16.23486328 C-43.86864553 6.31948995 -21.75101858 0.1389232 0 0 Z " fill="#6BBDF5" transform="translate(246.0234375,-0.203125)"/>
<path d="M0 0 C0 0.33 0 0.66 0 1 C-1.57974609 1.22042969 -1.57974609 1.22042969 -3.19140625 1.4453125 C-32.87549581 5.92599518 -58.17454003 23.13791538 -76.24609375 46.9609375 C-85.6106074 60.10696187 -92.84110288 74.10774715 -99 89 C-98.154375 88.01 -97.30875 87.02 -96.4375 86 C-95.88449219 85.35675781 -95.33148438 84.71351562 -94.76171875 84.05078125 C-93.63509301 82.73929895 -92.51230872 81.42450056 -91.39453125 80.10546875 C-75.47716334 61.5415076 -56.20270681 47.95521376 -33 40 C-32.24847656 39.71640625 -31.49695313 39.4328125 -30.72265625 39.140625 C-0.25293307 28.01945974 35.24620863 32.0034802 64.35644531 45.05664062 C78.22713912 51.66173291 89.83462212 60.4620979 101 71 C101.74894531 71.68449219 102.49789063 72.36898437 103.26953125 73.07421875 C129.70529729 98.12106539 140.08678508 133.81206415 141.09161377 169.22909546 C141.17256299 175.89832897 141.0866704 182.56165634 140.94335938 189.22949219 C140.87380647 192.68428436 140.8386582 196.13844408 140.8046875 199.59375 C140.7650756 201.80472527 140.7234863 204.01566621 140.6796875 206.2265625 C140.67218475 207.2524649 140.66468201 208.27836731 140.6569519 209.33535767 C140.46310003 216.36944338 140.46310003 216.36944338 138.08251953 219.61083984 C135.09142432 221.60607217 133.4511846 222.12484862 129.8964138 222.12304783 C128.5998426 222.1260344 128.5998426 222.1260344 127.27707803 222.12908131 C126.32183949 222.12616847 125.36660094 222.12325563 124.38241577 222.12025452 C123.37206949 222.12110894 122.36172321 222.12196337 121.32076037 222.12284368 C117.9135296 222.12449921 114.50634737 222.1189759 111.09912109 222.11352539 C108.66535951 222.11324351 106.23159784 222.11340127 103.7978363 222.1139679 C98.54693502 222.11419609 93.29604484 222.11134791 88.04514694 222.10573006 C80.45317303 222.09761279 72.86120513 222.0949996 65.26922734 222.09374207 C52.95259347 222.0915519 40.63596621 222.08489278 28.31933594 222.07543945 C16.35286492 222.06626441 4.3863957 222.05918403 -7.58007812 222.05493164 C-8.31734059 222.05466892 -9.05460305 222.05440619 -9.81420679 222.05413551 C-13.51273111 222.0528305 -17.21125545 222.05156678 -20.90977979 222.05032361 C-51.60652474 222.03995211 -82.3032611 222.02206009 -113 222 C-112.67 232.23 -112.34 242.46 -112 253 C-110.02 251.35 -108.04 249.7 -106 248 C-103.39453125 247.36889648 -103.39453125 247.36889648 -100.8125 247.37109375 C-99.86632812 247.36916016 -98.92015625 247.36722656 -97.9453125 247.36523438 C-96.97335938 247.38908203 -96.00140625 247.41292969 -95 247.4375 C-94.02804688 247.42654297 -93.05609375 247.41558594 -92.0546875 247.40429688 C-86.25791652 247.46352819 -82.46863325 247.93955921 -78 252 C-75.61151577 255.57408242 -75.734833 258.83580218 -75.70947266 263.06005859 C-75.70275543 263.76301559 -75.69603821 264.4659726 -75.68911743 265.19023132 C-75.67014927 267.50970567 -75.66621386 269.82889046 -75.6640625 272.1484375 C-75.65763365 273.76502602 -75.65090522 275.38161338 -75.64389038 276.99819946 C-75.63192053 280.38587135 -75.62820924 283.77344128 -75.62939453 287.16113281 C-75.62959768 291.49449442 -75.60229853 295.82719993 -75.56785011 300.16040611 C-75.54557308 303.49936911 -75.54155723 306.83817443 -75.54261398 310.17720413 C-75.54025912 311.77435186 -75.53144197 313.37150401 -75.51594925 314.96857834 C-75.49627226 317.20656548 -75.50213255 319.4431407 -75.51416016 321.68115234 C-75.51131012 322.95260101 -75.50846008 324.22404968 -75.50552368 325.5340271 C-76.08954676 329.62766732 -77.44481833 331.78938868 -80 335 C-84.4105208 338.07647438 -89.70014527 337.40713905 -94.875 337.4375 C-95.85597656 337.47037109 -96.83695313 337.50324219 -97.84765625 337.53710938 C-102.58853912 337.57229811 -105.94825788 337.58933439 -109.6953125 334.47265625 C-110.45585937 333.65667969 -111.21640625 332.84070313 -112 332 C-112.93737455 346.49805977 -110.66159634 360.51695517 -101 372 C-100.44570312 372.52980469 -99.89140625 373.05960937 -99.3203125 373.60546875 C-98 375 -98 375 -98 377 C-97.42121094 377.27714844 -96.84242188 377.55429687 -96.24609375 377.83984375 C-94 379 -94 379 -92.16015625 380.25390625 C-83.38436944 385.7285591 -73.01397672 384.92951797 -63 385 C-62.72027344 386.1859375 -62.44054687 387.371875 -62.15234375 388.59375 C-59.45855616 399.62452362 -56.07954334 409.83812542 -51 420 C-50.46632813 421.06863281 -49.93265625 422.13726562 -49.3828125 423.23828125 C-42.1754926 436.53216557 -30.40584069 448.87959673 -17 456 C-16.19304687 456.46792969 -15.38609375 456.93585938 -14.5546875 457.41796875 C0.48823285 464.7344845 21.35187635 462.53466646 37 458 C38.65 457.67 40.3 457.34 42 457 C42 475.15 42 493.3 42 512 C20.22 512 -1.56 512 -24 512 C-24 493.85 -24 475.7 -24 457 C-25.98 456.67 -27.96 456.34 -30 456 C-32.46398768 454.90489436 -34.76995532 453.78964542 -37.125 452.5 C-37.78024658 452.14325195 -38.43549316 451.78650391 -39.1105957 451.41894531 C-62.31515107 438.46835194 -79.29200374 417.77535043 -87.40625 392.48828125 C-88 390 -88 390 -88 386 C-88.6391333 386.01047363 -89.2782666 386.02094727 -89.93676758 386.03173828 C-92.89530335 386.07388495 -95.85377561 386.09950945 -98.8125 386.125 C-99.81732422 386.14175781 -100.82214844 386.15851563 -101.85742188 386.17578125 C-116.33778698 386.26890257 -130.6657955 383.03882495 -141.48828125 372.70703125 C-150.47513405 362.55908635 -156.15643095 350.8185144 -156.14044189 337.21264648 C-156.14341302 336.42296384 -156.14638414 335.63328119 -156.1494453 334.81966877 C-156.15812518 332.17013305 -156.15964002 329.52064256 -156.16113281 326.87109375 C-156.16576195 324.97194319 -156.17078674 323.07279357 -156.17617798 321.17364502 C-156.18930558 316.00741486 -156.19574909 310.8411977 -156.20018864 305.67495346 C-156.20312228 302.44049659 -156.20722792 299.20604323 -156.21169281 295.97158813 C-156.22537639 285.83318441 -156.23503557 275.69478878 -156.2388947 265.55637646 C-156.24336033 253.89046084 -156.26083476 242.22466328 -156.2898953 230.55878353 C-156.31161534 221.52236923 -156.32160466 212.48598786 -156.32293582 203.44954777 C-156.32397764 198.06323265 -156.32974981 192.67702836 -156.34775543 187.29074097 C-156.36441251 182.20832361 -156.36630745 177.1260982 -156.35761642 172.04366302 C-156.35685504 170.19438914 -156.36106739 168.3451042 -156.37107468 166.49585724 C-156.45379338 150.234428 -155.02834099 134.01694479 -150.3125 118.375 C-150.05831299 117.51366455 -149.80412598 116.6523291 -149.54223633 115.76489258 C-143.57230596 96.30052517 -133.84327044 77.78651991 -121 62 C-120.54753906 61.44070801 -120.09507813 60.88141602 -119.62890625 60.30517578 C-104.65222944 41.91410076 -87.05554216 27.88789708 -66 17 C-65.38688965 16.68047363 -64.7737793 16.36094727 -64.14208984 16.03173828 C-49.31234823 8.41172869 -33.41799051 3.7127136 -17 1 C-16.21238281 0.86851563 -15.42476562 0.73703125 -14.61328125 0.6015625 C-9.74359756 -0.10640723 -4.90662622 -0.10222138 0 0 Z " fill="#5EA5EC" transform="translate(247,0)"/>
<path d="M0 0 C0.680625 0.21430664 1.36125 0.42861328 2.0625 0.64941406 C33.64807251 10.9236983 57.40836975 32.20963623 72.89233398 61.40380859 C76.70516662 68.96831906 78.97429219 76.80314857 81 85 C81.23332031 85.89589844 81.46664062 86.79179687 81.70703125 87.71484375 C83.95572855 96.91994276 84.14557355 106.26503602 84.09765625 115.6953125 C84.09664917 116.64849365 84.09564209 117.6016748 84.09460449 118.58374023 C84.0894269 122.09750597 84.07546627 125.61125437 84.0625 129.125 C84.041875 137.00375 84.02125 144.8825 84 153 C59.25 153 34.5 153 9 153 C7.35 148.71 5.7 144.42 4 140 C1.96458127 136.68615104 1.96458127 136.68615104 -0.25 134.3125 C-3.99337748 130.01324503 -3.99337748 130.01324503 -5 128 C-4.41088867 125.58569336 -4.41088867 125.58569336 -3.41796875 122.58984375 C-2.88526367 120.98206055 -2.88526367 120.98206055 -2.34179688 119.34179688 C-1.96087891 118.21837891 -1.57996094 117.09496094 -1.1875 115.9375 C-0.81818359 114.81021484 -0.44886719 113.68292969 -0.06835938 112.52148438 C0.47014648 110.91563477 0.47014648 110.91563477 1.01953125 109.27734375 C1.35057861 108.28984131 1.68162598 107.30233887 2.02270508 106.28491211 C3 104 3 104 5 103 C6.84765625 103.59375 6.84765625 103.59375 9.0625 104.5 C13.92133578 106.20059252 18.03553893 106.49232297 23 105 C25.45243461 103.09936318 26.62927427 101.74145145 28 99 C28.31295839 92.04705024 27.44903325 85.65497462 26.171875 78.83203125 C25.98159729 77.79358566 25.79131958 76.75514008 25.59527588 75.68522644 C25.19254795 73.50364675 24.78555747 71.32285004 24.37451172 69.14282227 C23.75042562 65.81476972 23.15001707 62.48299571 22.55078125 59.15039062 C22.15507984 57.02317025 21.75799168 54.89620727 21.359375 52.76953125 C21.09504669 51.28342094 21.09504669 51.28342094 20.82537842 49.76728821 C19.76307864 44.26639878 18.60795154 40.33636397 15 36 C11.82993681 33.88662454 9.96572363 33.70308567 6.23046875 33.5390625 C0.59422527 34.70382035 -3.63990815 39.36078629 -7.6875 43.1875 C-11.52059079 46.77206121 -15.40533956 50.2112351 -19.5 53.5 C-25.58516812 58.40169566 -31.31783009 63.63866583 -37 69 C-38.14662109 69.99773437 -38.14662109 69.99773437 -39.31640625 71.015625 C-41.39906963 73.47036513 -41.53926352 74.75224726 -41.5 77.9375 C-41.5103125 78.77152344 -41.520625 79.60554688 -41.53125 80.46484375 C-40.80794677 83.91648933 -39.48641753 85.51358247 -37 88 C-34.0041133 89.64815868 -34.0041133 89.64815868 -30.75 90.8125 C-28.83333333 91.54166667 -26.91666667 92.27083333 -25 93 C-26.31006917 96.95914209 -27.62346532 100.91717247 -28.9375 104.875 C-29.31068359 106.00292969 -29.68386719 107.13085938 -30.06835938 108.29296875 C-30.60493164 109.90751953 -30.60493164 109.90751953 -31.15234375 111.5546875 C-31.48226318 112.54968262 -31.81218262 113.54467773 -32.15209961 114.56982422 C-33 117 -33 117 -34 119 C-35.7931476 119.51106184 -37.61188679 119.93342363 -39.4375 120.3125 C-52.71278845 123.46577517 -61.13064446 129.52897463 -68.421875 140.92578125 C-70.5399534 144.86024583 -70.5399534 144.86024583 -73 153 C-97.75 153 -122.5 153 -148 153 C-148.04125 145.224375 -148.0825 137.44875 -148.125 129.4375 C-148.14320801 127.01591553 -148.16141602 124.59433105 -148.18017578 122.09936523 C-148.33921141 86.15476747 -138.83604586 54.90071842 -113.25 28.8125 C-84.14032115 0.02665695 -39.51189059 -12.52862554 0 0 Z " fill="#F5F8F8" transform="translate(288,53)"/>
<path d="M0 0 C0.95239563 -0.01606293 1.90479126 -0.03212585 2.88604736 -0.04867554 C7.28144447 -0.09353529 11.67669194 -0.13427479 16.07226562 -0.15722656 C18.37445258 -0.17367536 20.67659087 -0.20081573 22.97851562 -0.23925781 C40.9276527 -0.53711507 55.18804362 0.59771537 70.30761719 11.19287109 C71.31824219 11.89412109 72.32886719 12.59537109 73.37011719 13.31787109 C84.81061293 23.42201263 90.47031233 36.41184487 91.53027344 51.32568359 C91.94795487 66.39853534 87.87567794 79.0103898 77.99511719 90.44287109 C69.97351583 98.86488516 62.41199142 103.58597581 51.30761719 107.19287109 C50.30859375 107.56541016 49.30957031 107.93794922 48.28027344 108.32177734 C42.49591094 109.94162304 36.31713229 109.39895258 30.37011719 109.31787109 C29.11392578 109.30884766 27.85773438 109.29982422 26.56347656 109.29052734 C23.47799196 109.26706358 20.39290514 109.23423311 17.30761719 109.19287109 C17.32856445 110.06500244 17.34951172 110.93713379 17.37109375 111.83569336 C17.43962914 115.09914908 17.48958895 118.36183034 17.52734375 121.62573242 C17.54734964 123.03308243 17.57456381 124.44035047 17.609375 125.84741211 C17.97010691 140.81248146 17.97010691 140.81248146 13.30761719 146.19287109 C6.93968592 150.56021806 -0.27474407 149.91279459 -7.69238281 149.19287109 C-11.68150186 148.05587581 -13.95512465 146.26292808 -16.33900452 142.80296326 C-18.30787222 137.55107332 -18.11830516 132.62199236 -18.09643555 127.05639648 C-18.1032988 125.83781448 -18.11016205 124.61923248 -18.11723328 123.36372375 C-18.13236865 120.0329473 -18.13400363 116.70273192 -18.12829089 113.37196279 C-18.12519348 110.58624941 -18.13129762 107.80058633 -18.13732964 105.01488012 C-18.15136092 98.44045993 -18.14982533 91.86616972 -18.13842773 85.29174805 C-18.12694814 78.52060888 -18.14102234 71.74986587 -18.16782421 64.9787789 C-18.19001139 59.15436462 -18.19661182 53.33007442 -18.1907478 47.5056209 C-18.18738414 44.03174279 -18.18975347 40.55811857 -18.20699883 37.0842762 C-18.22539892 33.20894072 -18.21124976 29.33408906 -18.1940918 25.45874023 C-18.20375977 24.31514038 -18.21342773 23.17154053 -18.22338867 21.99328613 C-18.15486678 14.59955293 -17.20821309 10.02675937 -12.09472656 4.45068359 C-7.97291577 1.26314991 -5.15340086 0.07924395 0 0 Z " fill="#F4F8F8" transform="translate(232.6923828125,245.80712890625)"/>
<path d="M0 0 C6.0126302 3.51682144 7.19139198 7.51380535 9 14 C9.78271178 17.30589475 10.42757425 20.62805366 11.04296875 23.96875 C11.21629227 24.88910034 11.38961578 25.80945068 11.56819153 26.75769043 C11.93008929 28.6899146 12.28874643 30.62274833 12.64428711 32.55615234 C13.18638897 35.49397894 13.74392147 38.42859316 14.30273438 41.36328125 C14.65458184 43.25243008 15.0055238 45.14174783 15.35546875 47.03125 C15.52104782 47.89713745 15.68662689 48.7630249 15.85722351 49.65515137 C18.32704883 63.29675238 18.32704883 63.29675238 15.3125 69.4375 C12.77640492 72.24776752 11.69184916 73.26163017 8 74 C2.4026982 73.88404836 -2.64448118 72.58971605 -8 71 C-9.55051554 74.97591048 -11.00164718 78.98140411 -12.4375 83 C-12.87771484 84.12535156 -13.31792969 85.25070313 -13.77148438 86.41015625 C-14.91719639 89.7028748 -15.78569254 92.51693385 -16 96 C-14.26422824 99.38872477 -11.82648502 101.5081087 -9 104 C-7.2578125 106.7578125 -7.2578125 106.7578125 -6.125 109.125 C-5.73570312 109.91132813 -5.34640625 110.69765625 -4.9453125 111.5078125 C-4 114 -4 114 -3 120 C-30.06 120 -57.12 120 -85 120 C-82.43724456 108.46760053 -77.87631786 99.79107674 -68 93 C-61.00365878 88.93235975 -54.23683029 85.60776999 -46 86 C-45.84144531 85.36835938 -45.68289062 84.73671875 -45.51953125 84.0859375 C-43.46381355 76.20379338 -40.81997863 68.63512001 -38 61 C-38.81984375 60.62488281 -39.6396875 60.24976563 -40.484375 59.86328125 C-41.56203125 59.35152344 -42.6396875 58.83976562 -43.75 58.3125 C-44.81734375 57.81363281 -45.8846875 57.31476563 -46.984375 56.80078125 C-50.25136374 54.84989808 -51.97487502 53.20845217 -54 50 C-54.56640625 47.5 -54.56640625 47.5 -54.5625 45 C-54.58441406 44.175 -54.60632813 43.35 -54.62890625 42.5 C-53.72229416 38.89607617 -51.74856572 37.45825082 -49 35 C-48.01630814 34.0697355 -47.0345939 33.13737613 -46.0546875 32.203125 C-40.14736906 26.69605147 -34.14851347 21.41988229 -27.83984375 16.37109375 C-23.88259686 13.06703755 -20.13728052 9.54878277 -16.4140625 5.984375 C-11.29413655 1.14534275 -7.24137169 -1.31153938 0 0 Z " fill="#DD646F" transform="translate(300,86)"/>
<path d="M0 0 C5.28 1.32 10.56 2.64 16 4 C21.30348632 4.3350959 26.34063335 4.5199021 31.625 4.4375 C33.55859375 4.44813477 33.55859375 4.44813477 35.53125 4.45898438 C44.37008951 4.40118512 52.43366714 3.10163479 61 1 C62.65 0.67 64.3 0.34 66 0 C66 18.15 66 36.3 66 55 C44.22 55 22.44 55 0 55 C0 36.85 0 18.7 0 0 Z " fill="#30579D" transform="translate(223,457)"/>
<path d="M0 0 C0.99 -0.02900391 1.98 -0.05800781 3 -0.08789062 C8.90028518 -0.13916316 12.70469348 0.12641932 17.25 4.3125 C19.63649481 7.88873956 19.51515864 11.14691049 19.54052734 15.37255859 C19.54724457 16.07551559 19.55396179 16.7784726 19.56088257 17.50273132 C19.57985073 19.82220567 19.58378614 22.14139046 19.5859375 24.4609375 C19.59236635 26.07752602 19.59909478 27.69411338 19.60610962 29.31069946 C19.61807947 32.69837135 19.62179076 36.08594128 19.62060547 39.47363281 C19.62040232 43.80699442 19.64770147 48.13969993 19.68214989 52.47290611 C19.70442692 55.81186911 19.70844277 59.15067443 19.70738602 62.48970413 C19.70974088 64.08685186 19.71855803 65.68400401 19.73405075 67.28107834 C19.75372774 69.51906548 19.74786745 71.7556407 19.73583984 73.99365234 C19.73868988 75.26510101 19.74153992 76.53654968 19.74447632 77.8465271 C19.16045324 81.94016732 17.80518167 84.10188868 15.25 87.3125 C10.8394792 90.38897438 5.54985473 89.71963905 0.375 89.75 C-0.60597656 89.78287109 -1.58695313 89.81574219 -2.59765625 89.84960938 C-10.68991199 89.90967335 -10.68991199 89.90967335 -14.3828125 86.91015625 C-18.0590352 82.87601747 -17.88975348 80.70590852 -17.94287109 75.29589844 C-17.95104858 74.57372635 -17.95922607 73.85155426 -17.96765137 73.10749817 C-17.99250728 70.71229889 -18.00902321 68.31715895 -18.0234375 65.921875 C-18.02876118 65.10375587 -18.03408485 64.28563675 -18.03956985 63.44272614 C-18.06630436 59.11107825 -18.08567686 54.7794592 -18.10009766 50.44775391 C-18.1167319 45.97750351 -18.16149781 41.50799231 -18.2124691 37.03802109 C-18.24615994 33.59785129 -18.25767712 30.1578564 -18.26332474 26.71753693 C-18.27003392 25.07011527 -18.2852475 23.42270499 -18.30921555 21.77544403 C-18.3409071 19.4652477 -18.34089889 17.15703715 -18.33349609 14.84667969 C-18.34158295 13.53366882 -18.3496698 12.22065796 -18.35800171 10.86785889 C-17.56198403 6.21305533 -16.05513045 4.62156601 -12.75 1.3125 C-8.90831726 -0.60834137 -4.22623811 0.0406369 0 0 Z " fill="#26467E" transform="translate(151.75,247.6875)"/>
<path d="M0 0 C-0.84820312 0.38929687 -1.69640625 0.77859375 -2.5703125 1.1796875 C-32.53260994 15.46939858 -54.5287538 39.86606229 -66.43359375 70.71484375 C-70.42872351 82.01264393 -73.56707147 93.93684324 -73 106 C-72.484375 106.680625 -71.96875 107.36125 -71.4375 108.0625 C-70 110 -70 110 -70.1875 113.625 C-71 117 -71 117 -73 119 C-73.24543141 121.64787789 -73.37349386 124.19903823 -73.4140625 126.8515625 C-73.43342865 127.62559418 -73.4527948 128.39962585 -73.4727478 129.19711304 C-73.5325983 131.67296275 -73.57895011 134.14885883 -73.625 136.625 C-73.66317482 138.30210377 -73.70222625 139.97918784 -73.7421875 141.65625 C-73.83995736 145.77073163 -73.91947991 149.8849996 -74 154 C-80.93 154 -87.86 154 -95 154 C-95.04625133 147.29612716 -95.08597366 140.59282208 -95.10986328 133.88891602 C-95.11983673 131.61480825 -95.13342032 129.34071301 -95.15087891 127.06665039 C-95.43119067 89.5790737 -87.13882783 57.22906986 -60.25 29.8125 C-45.39904135 15.12675348 -27.9629235 5.84341856 -8 0 C-7.28328125 -0.22816406 -6.5665625 -0.45632812 -5.828125 -0.69140625 C-3.6304439 -1.06238233 -2.10423702 -0.6763619 0 0 Z " fill="#E5EBF5" transform="translate(235,52)"/>
<path d="M0 0 C9.86208227 6.09287549 16.69036549 14.90299018 20 26 C20 26.99 20 27.98 20 29 C-7.06 29 -34.12 29 -62 29 C-59.43724456 17.46760053 -54.87631786 8.79107674 -45 2 C-30.18317364 -6.61443393 -15.53132972 -7.72805874 0 0 Z " fill="#28467D" transform="translate(277,177)"/>
<path d="M0 0 C6.1875 -0.1546875 6.1875 -0.1546875 12.5 -0.3125 C13.78455078 -0.35802002 15.06910156 -0.40354004 16.39257812 -0.45043945 C23.53651359 -0.53657122 28.60217847 0.07608434 34 5 C38.80968679 10.35278537 39.69783552 15.08712622 39.34765625 22.234375 C38.54792955 28.59624579 35.54529554 31.76767351 30.81640625 35.703125 C26.84637912 38.537639 24.05025264 39.24541074 19.140625 39.1953125 C18.13547852 39.19031738 17.13033203 39.18532227 16.09472656 39.18017578 C14.19158691 39.15286377 14.19158691 39.15286377 12.25 39.125 C8.2075 39.08375 4.165 39.0425 0 39 C0 26.13 0 13.26 0 0 Z " fill="#6BBEF6" transform="translate(250,281)"/>
<path d="M0 0 C5.28 1.32 10.56 2.64 16 4 C18.31 4.33 20.62 4.66 23 5 C23 21.5 23 38 23 55 C15.41 55 7.82 55 0 55 C0 36.85 0 18.7 0 0 Z " fill="#26457D" transform="translate(223,457)"/>
<path d="M0 0 C19 0 19 0 24 3 C25 6.4375 25 6.4375 25 10 C24.5155542 10.56750977 24.0311084 11.13501953 23.53198242 11.71972656 C21.32631384 15.00274562 21.52111156 18.21951741 21.48828125 22.046875 C21.47033005 22.81807678 21.45237885 23.58927856 21.43388367 24.3838501 C21.37984231 26.83917832 21.3459058 29.29431286 21.3125 31.75 C21.27932136 33.41799566 21.24483118 35.08596579 21.20898438 36.75390625 C21.12165676 40.83596438 21.0615399 44.91714611 21 49 C14.07 49 7.14 49 0 49 C0 32.83 0 16.66 0 0 Z " fill="#E5E9F4" transform="translate(140,157)"/>
<path d="M0 0 C5.28 0 10.56 0 16 0 C16.10822792 3.06345144 16.18741479 6.1230601 16.25 9.1875 C16.30027344 10.48397461 16.30027344 10.48397461 16.3515625 11.80664062 C16.41560289 15.98527609 16.35347352 18.38454943 14.234375 22.07421875 C11.90084956 24.08545658 11.02731098 24.68412717 8 24.625 C7.34 24.63789062 6.68 24.65078125 6 24.6640625 C2.69252442 23.56587725 1.72477854 22.00309891 0 19 C-0.47193094 15.71113967 -0.37849421 12.50116804 -0.25 9.1875 C-0.23195312 8.30384766 -0.21390625 7.42019531 -0.1953125 6.50976562 C-0.14838513 4.33937457 -0.07664731 2.16954481 0 0 Z " fill="#DD6872" transform="translate(248,49)"/>
<path d="M0 0 C0.88945312 0.00966797 1.77890625 0.01933594 2.6953125 0.02929688 C3.61570312 0.05443359 4.53609375 0.07957031 5.484375 0.10546875 C6.42023438 0.11900391 7.35609375 0.13253906 8.3203125 0.14648438 C10.62524721 0.18176399 12.92988505 0.23556909 15.234375 0.29296875 C15.234375 5.24296875 15.234375 10.19296875 15.234375 15.29296875 C11.81639204 15.42788913 8.40372338 15.52704333 4.984375 15.60546875 C4.01628906 15.64736328 3.04820312 15.68925781 2.05078125 15.73242188 C-5.10969623 15.85587838 -5.10969623 15.85587838 -8.4375 13 C-10.25556653 9.29435264 -9.92639271 7.21055979 -8.765625 3.29296875 C-5.89329476 0.53786837 -3.93367248 -0.07564755 0 0 Z " fill="#DC6570" transform="translate(356.765625,156.70703125)"/>
<path d="M0 0 C3.06303578 -0.08115993 6.12390815 -0.14057409 9.1875 -0.1875 C10.48397461 -0.22520508 10.48397461 -0.22520508 11.80664062 -0.26367188 C16.64307446 -0.31926307 20.17021702 -0.33191119 24 3 C25.23833836 6.93354538 25.50389323 8.97595893 23.66796875 12.70703125 C19.53402128 16.25992607 15.50865822 15.54007176 10.25 15.3125 C9.26644531 15.28994141 8.28289062 15.26738281 7.26953125 15.24414062 C4.84570187 15.18530981 2.42265652 15.09563118 0 15 C0 10.05 0 5.1 0 0 Z " fill="#DB6570" transform="translate(140,157)"/>
</svg>
